<svg aria-hidden="true" style="position: absolute; width: 0; height: 0; overflow: hidden;" version="1.1" xmlns="http://www.w3.org/2000/svg" xmlns:xlink="http://www.w3.org/1999/xlink">
<defs>
<symbol id="icon-copy" viewBox="0 0 24 24">
<path fill="#77777777" d="M11 8c-0.828 0-1.58 0.337-2.121 0.879s-0.879 1.293-0.879 2.121v9c0 0.828 0.337 1.58 0.879 2.121s1.293 0.879 2.121 0.879h9c0.828 0 1.58-0.337 2.121-0.879s0.879-1.293 0.879-2.121v-9c0-0.828-0.337-1.58-0.879-2.121s-1.293-0.879-2.121-0.879zM11 10h9c0.276 0 0.525 0.111 0.707 0.293s0.293 0.431 0.293 0.707v9c0 0.276-0.111 0.525-0.293 0.707s-0.431 0.293-0.707 0.293h-9c-0.276 0-0.525-0.111-0.707-0.293s-0.293-0.431-0.293-0.707v-9c0-0.276 0.111-0.525 0.293-0.707s0.431-0.293 0.707-0.293zM5 14h-1c-0.276 0-0.525-0.111-0.707-0.293s-0.293-0.431-0.293-0.707v-9c0-0.276 0.111-0.525 0.293-0.707s0.431-0.293 0.707-0.293h9c0.276 0 0.525 0.111 0.707 0.293s0.293 0.431 0.293 0.707v1c0 0.552 0.448 1 1 1s1-0.448 1-1v-1c0-0.828-0.337-1.58-0.879-2.121s-1.293-0.879-2.121-0.879h-9c-0.828 0-1.58 0.337-2.121 0.879s-0.879 1.293-0.879 2.121v9c0 0.828 0.337 1.58 0.879 2.121s1.293 0.879 2.121 0.879h1c0.552 0 1-0.448 1-1s-0.448-1-1-1z"></path>
</symbol>
<symbol id="icon-view-tile" viewBox="0 0 20 20">
<path fill="currentColor" d="M0 0h9v9h-9v-9zM2 2v5h5v-5h-5zM0 11h9v9h-9v-9zM2 13v5h5v-5h-5zM11 0h9v9h-9v-9zM13 2v5h5v-5h-5zM11 11h9v9h-9v-9zM13 13v5h5v-5h-5z"></path>
</symbol>
<symbol id="icon-close-menu" viewBox="5 5 22 22">
<path d="M16 18.829l7.071 7.071c0.781 0.781 2.047 0.781 2.829 0s0.781-2.047 0-2.828l-7.071-7.071 7.071-7.071c0.781-0.781 0.781-2.047 0-2.828s-2.047-0.781-2.829 0l-7.071 7.071-7.071-7.071c-0.781-0.781-2.047-0.781-2.828 0s-0.781 2.047 0 2.828l7.071 7.071-7.071 7.071c-0.781 0.781-0.781 2.047 0 2.828s2.047 0.781 2.828 0l7.071-7.071z"></path>
</symbol>
<symbol id="icon-error" viewBox="0 0 32 32">
<path d="M16 2.667c7.364 0 13.333 5.97 13.333 13.333s-5.97 13.333-13.333 13.333c-7.364 0-13.333-5.97-13.333-13.333s5.97-13.333 13.333-13.333zM13.172 11.286c-0.521-0.521-1.365-0.521-1.886 0-0.481 0.481-0.518 1.237-0.111 1.76l0.111 0.126 2.828 2.828-2.829 2.829c-0.521 0.521-0.521 1.365 0 1.886 0.481 0.481 1.237 0.518 1.76 0.111l0.126-0.111 2.828-2.829 2.829 2.829c0.521 0.521 1.365 0.521 1.886 0 0.481-0.481 0.518-1.237 0.111-1.76l-0.111-0.126-2.829-2.829 2.828-2.828c0.521-0.521 0.521-1.365 0-1.886-0.481-0.481-1.237-0.518-1.76-0.111l-0.126 0.111-2.828 2.828-2.828-2.828z"></path>
</symbol>
<symbol id="icon-menu" viewBox="4 4 24 24">
<path d="M26.667 23.333c1.105 0 2 0.895 2 2 0 1.040-0.793 1.894-1.807 1.991l-0.193 0.009h-21.333c-1.105 0-2-0.895-2-2 0-1.040 0.793-1.894 1.807-1.991l0.193-0.009h21.333zM26.667 14c1.105 0 2 0.895 2 2s-0.895 2-2 2h-21.333c-1.105 0-2-0.895-2-2s0.895-2 2-2h21.333zM26.667 4.667c1.105 0 2 0.895 2 2s-0.895 2-2 2h-21.333c-1.105 0-2-0.895-2-2s0.895-2 2-2h21.333z"></path>
</symbol>
<symbol id="icon-search-for-duplicates" viewBox="-1 -1 34 34">
<path d="M14.098 22.97c0-1.681 0.528-3.244 1.426-4.527h-9.043c-0.47 0-0.851-0.381-0.851-0.851s0.381-0.851 0.851-0.851h10.656c1.344-1.055 3.039-1.685 4.877-1.685 0.637 0 1.256 0.075 1.852 0.218v-13.475c0-0.994-0.807-1.8-1.8-1.8h-12.865v0.596c0.007 0.061 0.010 0.126 0.010 0.191v4.932c0 1.399-1.137 2.536-2.536 2.536h-4.932c-0.051 0-0.105-0.003-0.157-0.007h-0.63v18.856c0 0.994 0.807 1.8 1.8 1.8h14.023c-1.641-1.453-2.682-3.574-2.682-5.932zM6.481 12.127h12.59c0.47 0 0.851 0.381 0.851 0.851s-0.381 0.851-0.851 0.851h-12.59c-0.47 0-0.851-0.381-0.851-0.851s0.381-0.851 0.851-0.851zM12.774 22.783h-6.297c-0.47 0-0.851-0.381-0.851-0.851s0.381-0.851 0.851-0.851h6.297c0.47 0 0.851 0.381 0.851 0.851s-0.381 0.851-0.851 0.851z"></path>
<path d="M1.744 7.232h4.932c0.837 0 1.515-0.677 1.515-1.515v-4.932c0-0.456-0.374-0.759-0.762-0.759-0.187 0-0.374 0.068-0.531 0.225l-5.691 5.687c-0.476 0.476-0.14 1.293 0.538 1.293z"></path>
<path d="M28.437 27.589l-0.735-0.735c0.759-1.106 1.201-2.444 1.201-3.887 0-2.777-1.651-5.173-4.020-6.266-0.167-0.078-0.337-0.146-0.511-0.211-0.167-0.061-0.337-0.116-0.511-0.163-0.589-0.163-1.208-0.252-1.852-0.252-1.055 0-2.056 0.238-2.947 0.664-0.861 0.408-1.623 0.99-2.243 1.702-1.058 1.212-1.698 2.794-1.698 4.527 0 2.522 1.361 4.731 3.386 5.932 0.334 0.197 0.688 0.371 1.059 0.511 0.762 0.289 1.586 0.449 2.451 0.449 0.282 0 0.558-0.017 0.83-0.051 1.123-0.136 2.161-0.541 3.053-1.154l0.364 0.371 2.6 2.6c0.248 0.248 0.575 0.374 0.902 0.374s0.653-0.126 0.902-0.374c0.497-0.497 0.497-1.307 0-1.804l-2.233-2.233zM22.015 18.631c0.66 0 1.29 0.15 1.852 0.415 0.177 0.085 0.347 0.18 0.511 0.286 0.18 0.116 0.351 0.248 0.511 0.388 0.899 0.796 1.467 1.957 1.467 3.25s-0.568 2.454-1.467 3.25c-0.16 0.143-0.33 0.272-0.511 0.388-0.163 0.105-0.334 0.201-0.511 0.286-0.562 0.265-1.188 0.415-1.852 0.415-2.393 0-4.34-1.947-4.34-4.34s1.943-4.339 4.34-4.339z"></path>
</symbol>
<symbol id="icon-success" viewBox="0 0 32 32">
<path fill="#fff" style="fill: var(--color2, #fff)" d="M0 0h32v32h-32v-32z"></path>
<path d="M2.667 16c0 7.364 5.97 13.333 13.333 13.333s13.333-5.97 13.333-13.333c0-7.364-5.97-13.333-13.333-13.333s-13.333 5.97-13.333 13.333zM20.943 12.391c0.521 0.521 0.521 1.365 0 1.886l-4.91 4.91c-0.754 0.754-1.977 0.754-2.732 0l-2.244-2.244c-0.521-0.521-0.521-1.365 0-1.886s1.365-0.521 1.886 0l1.724 1.724 4.391-4.391c0.521-0.521 1.365-0.521 1.886 0z"></path>
</symbol>
<symbol id="icon-scan" viewBox="-1 -1 34 34">
<path d="M5.333 5.333h8v8h-8v-8zM26.667 5.333v8h-8v-8h8zM18.667 20h2.667v-2.667h-2.667v-2.667h2.667v2.667h2.667v-2.667h2.667v2.667h-2.667v2.667h2.667v4h-2.667v2.667h-2.667v-2.667h-4v2.667h-2.667v-5.333h4v-1.333zM21.333 20v4h2.667v-4h-2.667zM5.333 26.667v-8h8v8h-8zM8 8v2.667h2.667v-2.667h-2.667zM21.333 8v2.667h2.667v-2.667h-2.667zM8 21.333v2.667h2.667v-2.667h-2.667zM5.333 14.667h2.667v2.667h-2.667v-2.667zM12 14.667h5.333v5.333h-2.667v-2.667h-2.667v-2.667zM14.667 8h2.667v5.333h-2.667v-5.333zM2.667 2.667v5.333h-2.667v-5.333c0-1.473 1.194-2.667 2.667-2.667v0h5.333v2.667h-5.333zM29.333 0c1.473 0 2.667 1.194 2.667 2.667v0 5.333h-2.667v-5.333h-5.333v-2.667h5.333zM2.667 24v5.333h5.333v2.667h-5.333c-1.473 0-2.667-1.194-2.667-2.667v0-5.333h2.667zM29.333 29.333v-5.333h2.667v5.333c0 1.473-1.194 2.667-2.667 2.667v0h-5.333v-2.667z"></path>
</symbol>
<symbol id="icon-removing-duplicates" viewBox="0 0 32 32">
<path d="M28 6.154h-7.692v-2.462c0-1.354-1.108-2.462-2.462-2.462h-3.692c-1.354 0-2.462 1.108-2.462 2.462v2.462h-7.692c-0.492 0-0.923 0.431-0.923 0.923v1.846c0 0.492 0.431 0.923 0.923 0.923h24c0.492 0 0.923-0.431 0.923-0.923v-1.846c0-0.492-0.431-0.923-0.923-0.923zM14.154 4.308c0-0.369 0.246-0.615 0.615-0.615h2.462c0.369 0 0.615 0.246 0.615 0.615v1.846h-3.692v-1.846z"></path>
<path d="M25.538 12.308h-19.077c-0.492 0-0.923 0.431-0.923 0.923v14.462c0 1.723 1.354 3.077 3.077 3.077h14.769c1.723 0 3.077-1.354 3.077-3.077v-14.462c0-0.492-0.431-0.923-0.923-0.923zM14.154 25.846c0 0.369-0.246 0.615-0.615 0.615h-1.231c-0.369 0-0.615-0.246-0.615-0.615v-8.615c0-0.369 0.246-0.615 0.615-0.615h1.231c0.369 0 0.615 0.246 0.615 0.615v8.615zM20.308 25.846c0 0.369-0.246 0.615-0.615 0.615h-1.231c-0.369 0-0.615-0.246-0.615-0.615v-8.615c0-0.369 0.246-0.615 0.615-0.615h1.231c0.369 0 0.615 0.246 0.615 0.615v8.615z"></path>
</symbol>
<symbol id="icon-data-cleaning" viewBox="1 1 32 32">
<path d="M17 2.6v5.4h5.4z"></path>
<path d="M20.5 10h-4.5c-0.6 0-1-0.4-1-1v-7h-11c-0.6 0-1 0.4-1 1v26c0 0.6 0.4 1 1 1h12c-1.3-1.7-2-3.7-2-6 0-5.2 4-9.4 9-9.9v-1.6c0-1.4-1.1-2.5-2.5-2.5z"></path>
<path d="M18.3 18.3c-3.1 3.1-3.1 8.2 0 11.3s8.2 3.1 11.3 0 3.1-8.2 0-11.3-8.1-3.1-11.3 0zM26.8 22.6l-1.4 1.4 1.4 1.4c0.4 0.4 0.4 1 0 1.4s-1 0.4-1.4 0l-1.4-1.4-1.4 1.4c-0.4 0.4-1 0.4-1.4 0s-0.4-1 0-1.4l1.4-1.4-1.4-1.4c-0.4-0.4-0.4-1 0-1.4s1-0.4 1.4 0l1.4 1.4 1.4-1.4c0.4-0.4 1-0.4 1.4 0s0.4 1 0 1.4z"></path>
</symbol>
<symbol id="icon-share" viewBox="0 0 32 32">
<path fill="rgba(119, 119, 119, 0.467)" style="fill: var(--color1, rgba(119, 119, 119, 0.467))" d="M31.635 8.981l-7.384-7.385c-0.244-0.244-0.533-0.365-0.866-0.365-0.153 0-0.314 0.032-0.48 0.096-0.5 0.218-0.75 0.596-0.75 1.135v3.693h-3.077c-1.359 0-2.619 0.071-3.779 0.212s-2.183 0.336-3.067 0.587c-0.885 0.25-1.683 0.561-2.394 0.933s-1.317 0.766-1.817 1.183c-0.5 0.417-0.939 0.891-1.317 1.423s-0.679 1.054-0.904 1.567c-0.224 0.513-0.404 1.077-0.538 1.692s-0.224 1.192-0.269 1.731c-0.045 0.538-0.067 1.122-0.067 1.75 0 0.718 0.112 1.5 0.337 2.347s0.471 1.577 0.74 2.192c0.269 0.615 0.587 1.253 0.952 1.913s0.618 1.099 0.76 1.317c0.141 0.218 0.276 0.417 0.404 0.596 0.128 0.167 0.295 0.25 0.5 0.25 0.052 0 0.128-0.013 0.231-0.038 0.295-0.141 0.423-0.359 0.384-0.654-0.577-4.308-0.102-7.34 1.423-9.096 1.475-1.679 4.282-2.519 8.423-2.519h3.077v3.692c0 0.539 0.25 0.917 0.75 1.135 0.166 0.064 0.327 0.096 0.48 0.096 0.346 0 0.635-0.122 0.866-0.365l7.385-7.385c0.243-0.244 0.365-0.532 0.365-0.865s-0.122-0.622-0.365-0.865z"></path>
<path fill="#333" style="fill: var(--color2, #333)" d="M26.673 19.692c-0.244-0.103-0.468-0.051-0.673 0.154-0.333 0.308-0.68 0.545-1.039 0.712-0.231 0.128-0.346 0.314-0.346 0.558v4.116c0 0.846-0.301 1.57-0.904 2.173s-1.327 0.904-2.173 0.904h-16c-0.846 0-1.571-0.301-2.173-0.904s-0.904-1.327-0.904-2.173v-16c0-0.846 0.301-1.57 0.904-2.173s1.327-0.904 2.173-0.904h2.154c0.077 0 0.18-0.026 0.308-0.077 0.718-0.436 1.57-0.821 2.558-1.154 0.333-0.064 0.5-0.269 0.5-0.615 0-0.167-0.061-0.311-0.183-0.433s-0.266-0.182-0.433-0.182h-4.904c-1.526 0-2.83 0.542-3.914 1.625s-1.625 2.388-1.625 3.913v16c0 1.526 0.542 2.83 1.625 3.914s2.388 1.625 3.914 1.625h16c1.525 0 2.83-0.542 3.913-1.625s1.625-2.388 1.625-3.914v-4.981c-0-0.256-0.135-0.442-0.404-0.558z"></path>
</symbol>
<symbol id="icon-flashlight" viewBox="0 0 32 32">
<path d="M27.384 4.614c-2.682-2.682-6.046-3.661-7.118-2.589l-4.314 4.314c-0.654 0.656-1.226 2.846-0.963 5.062l-13.058 13.058c-0.774 0.774-0.147 2.656 1.402 4.206s3.434 2.174 4.206 1.403l13.058-13.059c2.218 0.262 4.408-0.309 5.062-0.962l4.314-4.315c1.072-1.072 0.093-4.438-2.589-7.118zM13.026 17.662c-0.597-0.595-0.402-1.754 0.43-2.587 0.834-0.834 1.994-1.029 2.589-0.432 0.595 0.594 0.402 1.755-0.432 2.587-0.834 0.835-1.992 1.029-2.587 0.432zM23.826 8.173c-2.077-2.075-2.597-4.816-2.413-5 0.184-0.186 2.816 0.443 4.894 2.52 2.077 2.077 2.701 4.714 2.52 4.894-0.179 0.179-2.926-0.336-5.002-2.414z"></path>
</symbol>
<symbol id="icon-delete" viewBox="0 0 32 32">
<path fill="#c33" style="fill: var(--color3, #c33)" d="M22.286 18.286c3.471 0 6.286 2.814 6.286 6.286s-2.814 6.286-6.286 6.286c-3.471 0-6.286-2.814-6.286-6.286s2.814-6.286 6.286-6.286zM16 2.286c2.448 0 4.447 1.925 4.566 4.343l0.006 0.228h5.714c0.631 0 1.143 0.512 1.143 1.143 0 0.586-0.441 1.069-1.010 1.135l-0.133 0.008h-0.97l-0.679 8.38c-0.739-0.246-1.529-0.38-2.351-0.38-4.103 0-7.429 3.326-7.429 7.429 0 1.996 0.788 3.809 2.069 5.144l-4.621-0.001c-2.233 0-4.091-1.714-4.272-3.939l-1.35-16.632h-0.969c-0.586 0-1.069-0.441-1.135-1.010l-0.008-0.133c0-0.586 0.441-1.069 1.010-1.135l0.133-0.008h5.714c0-2.525 2.047-4.571 4.571-4.571zM20.264 21.742l-0.079-0.066c-0.195-0.135-0.455-0.135-0.65 0l-0.079 0.066-0.066 0.079c-0.135 0.195-0.135 0.455 0 0.65l0.066 0.079 2.022 2.022-2.019 2.019-0.066 0.079c-0.135 0.195-0.135 0.455 0 0.65l0.066 0.079 0.079 0.066c0.195 0.135 0.455 0.135 0.65 0l0.079-0.066 2.019-2.019 2.022 2.022 0.079 0.066c0.195 0.135 0.455 0.135 0.65 0l0.079-0.066 0.066-0.079c0.135-0.195 0.135-0.455 0-0.65l-0.066-0.079-2.022-2.022 2.025-2.022 0.066-0.079c0.135-0.195 0.135-0.455 0-0.65l-0.066-0.079-0.079-0.066c-0.195-0.135-0.455-0.135-0.65 0l-0.079 0.066-2.025 2.022-2.022-2.022zM16 4.571c-1.205 0-2.192 0.932-2.279 2.115l-0.006 0.171h4.571l-0.006-0.171c-0.087-1.183-1.074-2.115-2.279-2.115z"></path>
</symbol>
<symbol id="icon-copy-2" viewBox="0 0 32 32">
<path fill="#09244b" style="fill: var(--color4, #09244b)" d="M12 2.667c-1.473 0-2.667 1.194-2.667 2.667v2.667h2.667v-2.667h14.667v14.667h-2.667v2.667h2.667c1.473 0 2.667-1.194 2.667-2.667v-14.667c0-1.473-1.194-2.667-2.667-2.667h-14.667zM5.333 9.333c-1.473 0-2.667 1.194-2.667 2.667v14.667c0 1.473 1.194 2.667 2.667 2.667h14.667c1.473 0 2.667-1.194 2.667-2.667v-14.667c0-1.473-1.194-2.667-2.667-2.667h-14.667zM5.333 12h14.667v14.667h-14.667v-14.667z"></path>
</symbol>
<symbol id="icon-warning" viewBox="0 0 32 32">
<path d="M30.555 25.219l-12.519-21.436c-1.044-1.044-2.738-1.044-3.782 0l-12.52 21.436c-1.044 1.043-1.044 2.736 0 3.781h28.82c1.046-1.045 1.046-2.738 0.001-3.781zM14.992 11.478c0-0.829 0.672-1.5 1.5-1.5s1.5 0.671 1.5 1.5v7c0 0.828-0.672 1.5-1.5 1.5s-1.5-0.672-1.5-1.5v-7zM16.501 24.986c-0.828 0-1.5-0.67-1.5-1.5 0-0.828 0.672-1.5 1.5-1.5s1.5 0.672 1.5 1.5c0 0.83-0.672 1.5-1.5 1.5z"></path>
</symbol>
<symbol id="icon-clear" viewBox="0 0 32 32">
<path d="M29.72 0.020c-0.575 0.005-1.115 0.235-1.42 0.7l-4.86 9.14c0.36 0.125 1.17 0.485 3.86 1.7l0.040 0.020c0.465 0.21 0.82 0.36 0.96 0.42 0.047 0.023 0.093 0.057 0.14 0.080l3.54-9.8c0.222-0.775-0.332-1.667-1.22-2.020-0.33-0.165-0.695-0.242-1.040-0.24zM2.56 5.12c-1.413 0-2.56 1.147-2.56 2.56s1.147 2.56 2.56 2.56c1.413 0 2.56-1.147 2.56-2.56s-1.147-2.56-2.56-2.56zM8.32 7.040c-0.707 0-1.28 0.572-1.28 1.28s0.572 1.28 1.28 1.28c0.707 0 1.28-0.572 1.28-1.28s-0.572-1.28-1.28-1.28zM20.58 10.64c-1.238 0.092-2.315 0.707-3.080 1.78 0.483 0.813 1.328 1.805 2.52 1.78 0.315-0.012 0.58 0.215 0.64 0.52 0.242 0.377 1.732 1.047 2.16 0.88 0.18-0.070 0.372-0.055 0.54 0.040s0.288 0.25 0.32 0.44c0.025 0.105 0.305 0.473 0.88 0.74 0.453 0.21 0.892 0.262 1.14 0.14 0.16-0.080 0.335-0.082 0.5-0.020 0.168 0.063 0.313 0.195 0.38 0.36 0.433 1.055 2.407 1.133 3.76 1.020 0.198-0.858 0.145-1.75-0.16-2.58-0.422-1.143-1.26-2.045-2.4-2.56-0.12-0.053-0.508-0.238-1-0.46-2.28-1.030-3.567-1.59-3.82-1.66-0.835-0.33-1.637-0.475-2.38-0.42zM7.36 11.52c-1.94 0-3.52 1.58-3.52 3.52s1.58 3.52 3.52 3.52c1.94 0 3.52-1.58 3.52-3.52s-1.58-3.52-3.52-3.52zM16.82 13.7c-0.2 0.475-0.427 0.92-0.66 1.34 0.275 0.67 1.087 2.223 2.58 1.88 0.172-0.040 0.355-0.017 0.5 0.080 0.148 0.098 0.23 0.247 0.26 0.42 0.043 0.24 0.325 0.525 0.72 0.74 0.56 0.302 1.165 0.37 1.42 0.26 0.168-0.073 0.355-0.078 0.52 0s0.29 0.225 0.34 0.4c0.090 0.305 0.405 0.617 0.84 0.84 0.512 0.26 1.098 0.355 1.48 0.22 0.295-0.102 0.61 0.023 0.76 0.3 0.565 1.047 2.42 1.16 3.86 1.060 0.183-0.52 0.352-1.055 0.52-1.62-0.172 0.010-0.352 0.020-0.54 0.020-1.34 0-2.942-0.265-3.74-1.36-0.54 0.073-1.16-0.045-1.78-0.36-0.45-0.23-0.945-0.582-1.24-1.020-0.815 0-1.753-0.453-2.22-0.74-0.363-0.223-0.645-0.443-0.82-0.68-1.27-0.117-2.177-0.945-2.8-1.78zM15.36 16.3c-3.967 5.512-10.742 5.35-10.82 5.34-0.253-0.023-0.5 0.113-0.62 0.34s-0.103 0.5 0.060 0.7c1.142 1.41 2.37 2.602 3.62 3.62 0.59 0.117 4.303 0.642 7.98-3.62 0.23-0.267 0.632-0.29 0.9-0.060s0.29 0.633 0.060 0.9c-2.565 2.973-5.27 3.902-7.16 4.1 1.58 1.065 3.172 1.87 4.66 2.48 0.945-0.198 4.115-1.145 6.92-5.42 0.195-0.295 0.605-0.395 0.9-0.2s0.375 0.605 0.18 0.9c-2.115 3.223-4.43 4.735-6.060 5.44 3.328 1.078 5.81 1.172 6.020 1.18h0.020c0.12 0 0.238-0.035 0.34-0.1 0.18-0.113 3.885-2.532 6.6-9.34-0.105 0.003-0.212 0.020-0.32 0.020-1.4 0-3.017-0.282-3.9-1.38-0.62 0.075-1.33-0.067-1.98-0.4-0.53-0.273-0.95-0.637-1.22-1.060-0.68 0.058-1.415-0.188-1.92-0.46-0.52-0.282-0.927-0.637-1.16-1.040-1.473 0.078-2.495-0.925-3.1-1.94z"></path>
</symbol>
</defs>
</svg>
